<mxfile host="app.diagrams.net" modified="2024-04-19T02:33:16.078Z" agent="Mozilla/5.0 (Windows NT 10.0; Win64; x64) AppleWebKit/537.36 (KHTML, like Gecko) Chrome/124.0.0.0 Safari/537.36" etag="NHa5voiUt-DxiyC2XcLf" version="24.2.5" type="device">
  <diagram name="Page-1" id="u2gvrJDr0KTNlMnr9ygG">
    <mxGraphModel dx="989" dy="538" grid="1" gridSize="10" guides="1" tooltips="1" connect="1" arrows="1" fold="1" page="1" pageScale="1" pageWidth="850" pageHeight="1100" math="0" shadow="0">
      <root>
        <mxCell id="0" />
        <mxCell id="1" parent="0" />
        <mxCell id="NXTewplx0SHH3v9Mlc8O-1" value="" style="rounded=1;whiteSpace=wrap;html=1;" vertex="1" parent="1">
          <mxGeometry x="80" y="120" width="240" height="320" as="geometry" />
        </mxCell>
        <mxCell id="NXTewplx0SHH3v9Mlc8O-2" value="" style="rounded=1;whiteSpace=wrap;html=1;" vertex="1" parent="1">
          <mxGeometry x="470" y="120" width="240" height="320" as="geometry" />
        </mxCell>
        <mxCell id="NXTewplx0SHH3v9Mlc8O-3" value="" style="ellipse;whiteSpace=wrap;html=1;aspect=fixed;fillColor=#1ba1e2;fontColor=#ffffff;strokeColor=#006EAF;" vertex="1" parent="1">
          <mxGeometry x="120" y="180" width="10" height="10" as="geometry" />
        </mxCell>
        <mxCell id="NXTewplx0SHH3v9Mlc8O-4" value="" style="ellipse;whiteSpace=wrap;html=1;aspect=fixed;fillColor=#1ba1e2;fontColor=#ffffff;strokeColor=#006EAF;" vertex="1" parent="1">
          <mxGeometry x="120" y="190" width="10" height="10" as="geometry" />
        </mxCell>
        <mxCell id="NXTewplx0SHH3v9Mlc8O-5" value="" style="ellipse;whiteSpace=wrap;html=1;aspect=fixed;fillColor=#1ba1e2;fontColor=#ffffff;strokeColor=#006EAF;" vertex="1" parent="1">
          <mxGeometry x="130" y="200" width="10" height="10" as="geometry" />
        </mxCell>
        <mxCell id="NXTewplx0SHH3v9Mlc8O-6" value="" style="ellipse;whiteSpace=wrap;html=1;aspect=fixed;fillColor=#e51400;fontColor=#ffffff;strokeColor=#B20000;" vertex="1" parent="1">
          <mxGeometry x="160" y="150" width="10" height="10" as="geometry" />
        </mxCell>
        <mxCell id="NXTewplx0SHH3v9Mlc8O-7" value="" style="ellipse;whiteSpace=wrap;html=1;aspect=fixed;fillColor=#e51400;fontColor=#ffffff;strokeColor=#B20000;" vertex="1" parent="1">
          <mxGeometry x="170" y="140" width="10" height="10" as="geometry" />
        </mxCell>
        <mxCell id="NXTewplx0SHH3v9Mlc8O-8" value="" style="ellipse;whiteSpace=wrap;html=1;aspect=fixed;fillColor=#e51400;fontColor=#ffffff;strokeColor=#B20000;shadow=1;gradientColor=#ffffff;gradientDirection=north;" vertex="1" parent="1">
          <mxGeometry x="210" y="180" width="10" height="10" as="geometry" />
        </mxCell>
        <mxCell id="NXTewplx0SHH3v9Mlc8O-9" value="" style="ellipse;whiteSpace=wrap;html=1;aspect=fixed;fillColor=#60a917;fontColor=#ffffff;strokeColor=#2D7600;" vertex="1" parent="1">
          <mxGeometry x="200" y="190" width="10" height="10" as="geometry" />
        </mxCell>
        <mxCell id="NXTewplx0SHH3v9Mlc8O-10" value="" style="ellipse;whiteSpace=wrap;html=1;aspect=fixed;fillColor=#60a917;fontColor=#ffffff;strokeColor=#2D7600;" vertex="1" parent="1">
          <mxGeometry x="210" y="190" width="10" height="10" as="geometry" />
        </mxCell>
        <mxCell id="NXTewplx0SHH3v9Mlc8O-11" value="" style="ellipse;whiteSpace=wrap;html=1;aspect=fixed;fillColor=#60a917;fontColor=#ffffff;strokeColor=#2D7600;" vertex="1" parent="1">
          <mxGeometry x="195" y="200" width="10" height="10" as="geometry" />
        </mxCell>
        <mxCell id="NXTewplx0SHH3v9Mlc8O-12" value="" style="rhombus;whiteSpace=wrap;html=1;fillColor=#bac8d3;strokeColor=#23445d;" vertex="1" parent="1">
          <mxGeometry x="160" y="180" width="10" height="10" as="geometry" />
        </mxCell>
        <mxCell id="NXTewplx0SHH3v9Mlc8O-15" value="" style="ellipse;whiteSpace=wrap;html=1;fillColor=none;dashed=1;dashPattern=8 8;" vertex="1" parent="1">
          <mxGeometry x="100" y="130" width="140" height="100" as="geometry" />
        </mxCell>
        <mxCell id="NXTewplx0SHH3v9Mlc8O-16" value="" style="ellipse;whiteSpace=wrap;html=1;aspect=fixed;fillColor=#e3c800;fontColor=#000000;strokeColor=#B09500;" vertex="1" parent="1">
          <mxGeometry x="220" y="310" width="10" height="10" as="geometry" />
        </mxCell>
        <mxCell id="NXTewplx0SHH3v9Mlc8O-17" value="" style="ellipse;whiteSpace=wrap;html=1;aspect=fixed;fillColor=#e3c800;fontColor=#000000;strokeColor=#B09500;" vertex="1" parent="1">
          <mxGeometry x="230" y="310" width="10" height="10" as="geometry" />
        </mxCell>
        <mxCell id="NXTewplx0SHH3v9Mlc8O-18" value="" style="ellipse;whiteSpace=wrap;html=1;aspect=fixed;fillColor=#e3c800;fontColor=#000000;strokeColor=#B09500;" vertex="1" parent="1">
          <mxGeometry x="235" y="320" width="10" height="10" as="geometry" />
        </mxCell>
        <mxCell id="NXTewplx0SHH3v9Mlc8O-19" value="" style="ellipse;whiteSpace=wrap;html=1;aspect=fixed;fillColor=#a0522d;fontColor=#ffffff;strokeColor=#6D1F00;" vertex="1" parent="1">
          <mxGeometry x="150" y="310" width="10" height="10" as="geometry" />
        </mxCell>
        <mxCell id="NXTewplx0SHH3v9Mlc8O-20" value="" style="ellipse;whiteSpace=wrap;html=1;aspect=fixed;fillColor=#a0522d;fontColor=#ffffff;strokeColor=#6D1F00;" vertex="1" parent="1">
          <mxGeometry x="140" y="310" width="10" height="10" as="geometry" />
        </mxCell>
        <mxCell id="NXTewplx0SHH3v9Mlc8O-21" value="" style="ellipse;whiteSpace=wrap;html=1;aspect=fixed;fillColor=#a0522d;fontColor=#ffffff;strokeColor=#6D1F00;" vertex="1" parent="1">
          <mxGeometry x="150" y="320" width="10" height="10" as="geometry" />
        </mxCell>
        <mxCell id="NXTewplx0SHH3v9Mlc8O-23" value="" style="ellipse;whiteSpace=wrap;html=1;aspect=fixed;fillColor=#fa6800;fontColor=#000000;strokeColor=#C73500;gradientColor=#e1ff00;gradientDirection=west;" vertex="1" parent="1">
          <mxGeometry x="160" y="340" width="10" height="10" as="geometry" />
        </mxCell>
        <mxCell id="NXTewplx0SHH3v9Mlc8O-24" value="" style="ellipse;whiteSpace=wrap;html=1;aspect=fixed;fillColor=#fa6800;fontColor=#000000;strokeColor=#C73500;" vertex="1" parent="1">
          <mxGeometry x="195" y="390" width="10" height="10" as="geometry" />
        </mxCell>
        <mxCell id="NXTewplx0SHH3v9Mlc8O-25" value="" style="ellipse;whiteSpace=wrap;html=1;aspect=fixed;fillColor=#fa6800;fontColor=#000000;strokeColor=#C73500;" vertex="1" parent="1">
          <mxGeometry x="190" y="380" width="10" height="10" as="geometry" />
        </mxCell>
        <mxCell id="NXTewplx0SHH3v9Mlc8O-29" value="" style="rhombus;whiteSpace=wrap;html=1;fillColor=#bac8d3;strokeColor=#23445d;" vertex="1" parent="1">
          <mxGeometry x="190" y="340" width="10" height="10" as="geometry" />
        </mxCell>
        <mxCell id="NXTewplx0SHH3v9Mlc8O-30" value="" style="ellipse;whiteSpace=wrap;html=1;fillColor=none;dashed=1;dashPattern=8 8;rotation=15;" vertex="1" parent="1">
          <mxGeometry x="118.12" y="282.5" width="163.75" height="125" as="geometry" />
        </mxCell>
        <mxCell id="NXTewplx0SHH3v9Mlc8O-31" value="" style="ellipse;whiteSpace=wrap;html=1;fillColor=#e51400;fontColor=#ffffff;strokeColor=#B20000;" vertex="1" parent="1">
          <mxGeometry x="560" y="150" width="10" height="10" as="geometry" />
        </mxCell>
        <mxCell id="NXTewplx0SHH3v9Mlc8O-32" value="" style="ellipse;whiteSpace=wrap;html=1;fillColor=#e51400;fontColor=#ffffff;strokeColor=#B20000;gradientColor=#f8f7f7;gradientDirection=north;" vertex="1" parent="1">
          <mxGeometry x="570" y="160" width="10" height="10" as="geometry" />
        </mxCell>
        <mxCell id="NXTewplx0SHH3v9Mlc8O-33" value="" style="ellipse;whiteSpace=wrap;html=1;fillColor=#e51400;fontColor=#ffffff;strokeColor=#B20000;" vertex="1" parent="1">
          <mxGeometry x="560" y="160" width="10" height="10" as="geometry" />
        </mxCell>
        <mxCell id="NXTewplx0SHH3v9Mlc8O-34" value="" style="ellipse;whiteSpace=wrap;html=1;fillColor=#60a917;fontColor=#ffffff;strokeColor=#2D7600;" vertex="1" parent="1">
          <mxGeometry x="620" y="175" width="10" height="10" as="geometry" />
        </mxCell>
        <mxCell id="NXTewplx0SHH3v9Mlc8O-35" value="" style="ellipse;whiteSpace=wrap;html=1;fillColor=#60a917;fontColor=#ffffff;strokeColor=#2D7600;" vertex="1" parent="1">
          <mxGeometry x="620" y="185" width="10" height="10" as="geometry" />
        </mxCell>
        <mxCell id="NXTewplx0SHH3v9Mlc8O-36" value="" style="ellipse;whiteSpace=wrap;html=1;fillColor=#60a917;fontColor=#ffffff;strokeColor=#2D7600;" vertex="1" parent="1">
          <mxGeometry x="610" y="180" width="10" height="10" as="geometry" />
        </mxCell>
        <mxCell id="NXTewplx0SHH3v9Mlc8O-37" value="" style="ellipse;whiteSpace=wrap;html=1;fillColor=#0050ef;fontColor=#ffffff;strokeColor=#001DBC;" vertex="1" parent="1">
          <mxGeometry x="520" y="210" width="10" height="10" as="geometry" />
        </mxCell>
        <mxCell id="NXTewplx0SHH3v9Mlc8O-38" value="" style="ellipse;whiteSpace=wrap;html=1;fillColor=#0050ef;fontColor=#ffffff;strokeColor=#001DBC;" vertex="1" parent="1">
          <mxGeometry x="530" y="220" width="10" height="10" as="geometry" />
        </mxCell>
        <mxCell id="NXTewplx0SHH3v9Mlc8O-39" value="" style="ellipse;whiteSpace=wrap;html=1;fillColor=#0050ef;fontColor=#ffffff;strokeColor=#001DBC;" vertex="1" parent="1">
          <mxGeometry x="540" y="220" width="10" height="10" as="geometry" />
        </mxCell>
        <mxCell id="NXTewplx0SHH3v9Mlc8O-40" value="" style="ellipse;whiteSpace=wrap;html=1;fillColor=#a0522d;fontColor=#ffffff;strokeColor=#6D1F00;" vertex="1" parent="1">
          <mxGeometry x="530" y="310" width="10" height="10" as="geometry" />
        </mxCell>
        <mxCell id="NXTewplx0SHH3v9Mlc8O-41" value="" style="ellipse;whiteSpace=wrap;html=1;fillColor=#a0522d;fontColor=#ffffff;strokeColor=#6D1F00;" vertex="1" parent="1">
          <mxGeometry x="520" y="310" width="10" height="10" as="geometry" />
        </mxCell>
        <mxCell id="NXTewplx0SHH3v9Mlc8O-42" value="" style="ellipse;whiteSpace=wrap;html=1;fillColor=#a0522d;fontColor=#ffffff;strokeColor=#6D1F00;" vertex="1" parent="1">
          <mxGeometry x="520" y="320" width="10" height="10" as="geometry" />
        </mxCell>
        <mxCell id="NXTewplx0SHH3v9Mlc8O-43" value="" style="ellipse;whiteSpace=wrap;html=1;fillColor=#e3c800;fontColor=#000000;strokeColor=#B09500;" vertex="1" parent="1">
          <mxGeometry x="600" y="340" width="10" height="10" as="geometry" />
        </mxCell>
        <mxCell id="NXTewplx0SHH3v9Mlc8O-44" value="" style="ellipse;whiteSpace=wrap;html=1;fillColor=#e3c800;fontColor=#000000;strokeColor=#B09500;" vertex="1" parent="1">
          <mxGeometry x="600" y="360" width="10" height="10" as="geometry" />
        </mxCell>
        <mxCell id="NXTewplx0SHH3v9Mlc8O-45" value="" style="ellipse;whiteSpace=wrap;html=1;fillColor=#e3c800;fontColor=#000000;strokeColor=#B09500;" vertex="1" parent="1">
          <mxGeometry x="600" y="350" width="10" height="10" as="geometry" />
        </mxCell>
        <mxCell id="NXTewplx0SHH3v9Mlc8O-46" value="" style="ellipse;whiteSpace=wrap;html=1;fillColor=#fa6800;fontColor=#000000;strokeColor=#C73500;" vertex="1" parent="1">
          <mxGeometry x="520" y="380" width="10" height="10" as="geometry" />
        </mxCell>
        <mxCell id="NXTewplx0SHH3v9Mlc8O-47" value="" style="ellipse;whiteSpace=wrap;html=1;fillColor=#fa6800;fontColor=#000000;strokeColor=#C73500;" vertex="1" parent="1">
          <mxGeometry x="530" y="380" width="10" height="10" as="geometry" />
        </mxCell>
        <mxCell id="NXTewplx0SHH3v9Mlc8O-48" value="" style="ellipse;whiteSpace=wrap;html=1;fillColor=#fa6800;fontColor=#000000;strokeColor=#C73500;gradientColor=#fbff00;gradientDirection=west;" vertex="1" parent="1">
          <mxGeometry x="540" y="390" width="10" height="10" as="geometry" />
        </mxCell>
        <mxCell id="NXTewplx0SHH3v9Mlc8O-50" value="" style="rhombus;whiteSpace=wrap;html=1;fillColor=#bac8d3;strokeColor=#23445d;" vertex="1" parent="1">
          <mxGeometry x="540" y="200" width="10" height="10" as="geometry" />
        </mxCell>
        <mxCell id="NXTewplx0SHH3v9Mlc8O-54" value="" style="rhombus;whiteSpace=wrap;html=1;fillColor=#bac8d3;strokeColor=#23445d;" vertex="1" parent="1">
          <mxGeometry x="530" y="330" width="10" height="10" as="geometry" />
        </mxCell>
        <mxCell id="NXTewplx0SHH3v9Mlc8O-56" value="" style="ellipse;whiteSpace=wrap;html=1;fillColor=none;dashed=1;dashPattern=8 8;rotation=15;" vertex="1" parent="1">
          <mxGeometry x="497.5" y="140" width="155" height="110" as="geometry" />
        </mxCell>
        <mxCell id="NXTewplx0SHH3v9Mlc8O-57" value="" style="ellipse;whiteSpace=wrap;html=1;fillColor=none;dashed=1;dashPattern=8 8;rotation=15;" vertex="1" parent="1">
          <mxGeometry x="480" y="292.5" width="156.88" height="125" as="geometry" />
        </mxCell>
        <mxCell id="NXTewplx0SHH3v9Mlc8O-58" value="T1" style="rounded=0;whiteSpace=wrap;html=1;fillColor=default;strokeColor=none;" vertex="1" parent="1">
          <mxGeometry x="240" y="135" width="20" height="25" as="geometry" />
        </mxCell>
        <mxCell id="NXTewplx0SHH3v9Mlc8O-59" value="T2" style="rounded=0;whiteSpace=wrap;html=1;fillColor=default;strokeColor=none;" vertex="1" parent="1">
          <mxGeometry x="261.87" y="280" width="20" height="25" as="geometry" />
        </mxCell>
        <mxCell id="NXTewplx0SHH3v9Mlc8O-60" value="T1" style="rounded=0;whiteSpace=wrap;html=1;fillColor=default;strokeColor=none;" vertex="1" parent="1">
          <mxGeometry x="636.88" y="142.5" width="20" height="25" as="geometry" />
        </mxCell>
        <mxCell id="NXTewplx0SHH3v9Mlc8O-61" value="T2" style="rounded=0;whiteSpace=wrap;html=1;fillColor=default;strokeColor=none;" vertex="1" parent="1">
          <mxGeometry x="620" y="292.5" width="20" height="25" as="geometry" />
        </mxCell>
        <mxCell id="NXTewplx0SHH3v9Mlc8O-62" value="" style="shape=flexArrow;endArrow=classic;html=1;rounded=0;entryX=-0.005;entryY=0.606;entryDx=0;entryDy=0;entryPerimeter=0;" edge="1" parent="1">
          <mxGeometry width="50" height="50" relative="1" as="geometry">
            <mxPoint x="270" y="180" as="sourcePoint" />
            <mxPoint x="497.5043258813279" y="180.00363437913074" as="targetPoint" />
          </mxGeometry>
        </mxCell>
        <mxCell id="NXTewplx0SHH3v9Mlc8O-63" value="" style="shape=flexArrow;endArrow=classic;html=1;rounded=0;entryX=-0.005;entryY=0.606;entryDx=0;entryDy=0;entryPerimeter=0;" edge="1" parent="1">
          <mxGeometry width="50" height="50" relative="1" as="geometry">
            <mxPoint x="300.63" y="350" as="sourcePoint" />
            <mxPoint x="480.0043258813279" y="350.00363437913074" as="targetPoint" />
          </mxGeometry>
        </mxCell>
        <mxCell id="NXTewplx0SHH3v9Mlc8O-64" value="Task-adaptation" style="text;html=1;align=center;verticalAlign=middle;resizable=0;points=[];autosize=1;strokeColor=none;fillColor=none;" vertex="1" parent="1">
          <mxGeometry x="330" y="180" width="110" height="30" as="geometry" />
        </mxCell>
        <mxCell id="NXTewplx0SHH3v9Mlc8O-65" value="Task-adaptation" style="text;html=1;align=center;verticalAlign=middle;resizable=0;points=[];autosize=1;strokeColor=none;fillColor=none;" vertex="1" parent="1">
          <mxGeometry x="335" y="350" width="110" height="30" as="geometry" />
        </mxCell>
        <mxCell id="NXTewplx0SHH3v9Mlc8O-66" value="&lt;p style=&quot;line-height: 80%;&quot;&gt;&lt;font style=&quot;font-size: 9px;&quot;&gt;Shares Task-adaptation strategy&lt;/font&gt;&lt;/p&gt;" style="ellipse;whiteSpace=wrap;html=1;align=center;" vertex="1" parent="1">
          <mxGeometry x="345" y="250" width="90" height="50" as="geometry" />
        </mxCell>
        <mxCell id="NXTewplx0SHH3v9Mlc8O-67" value="" style="ellipse;whiteSpace=wrap;html=1;" vertex="1" parent="1">
          <mxGeometry x="245.94" y="460" width="18.13" height="20" as="geometry" />
        </mxCell>
        <mxCell id="NXTewplx0SHH3v9Mlc8O-68" value="" style="rhombus;whiteSpace=wrap;html=1;" vertex="1" parent="1">
          <mxGeometry x="245" y="490" width="20" height="20" as="geometry" />
        </mxCell>
        <mxCell id="NXTewplx0SHH3v9Mlc8O-69" value=": Support Nodes (where each color represents a class)." style="text;html=1;align=center;verticalAlign=middle;resizable=0;points=[];autosize=1;strokeColor=none;fillColor=none;" vertex="1" parent="1">
          <mxGeometry x="264.07" y="455" width="320" height="30" as="geometry" />
        </mxCell>
        <mxCell id="NXTewplx0SHH3v9Mlc8O-70" value=": Query Nodes" style="text;html=1;align=center;verticalAlign=middle;resizable=0;points=[];autosize=1;strokeColor=none;fillColor=none;" vertex="1" parent="1">
          <mxGeometry x="264.07" y="485" width="100" height="30" as="geometry" />
        </mxCell>
        <mxCell id="NXTewplx0SHH3v9Mlc8O-71" value="" style="endArrow=none;dashed=1;html=1;dashPattern=1 3;strokeWidth=2;rounded=0;entryX=0.542;entryY=1.078;entryDx=0;entryDy=0;entryPerimeter=0;exitX=0.5;exitY=0;exitDx=0;exitDy=0;exitPerimeter=0;" edge="1" parent="1" source="NXTewplx0SHH3v9Mlc8O-66" target="NXTewplx0SHH3v9Mlc8O-64">
          <mxGeometry width="50" height="50" relative="1" as="geometry">
            <mxPoint x="370" y="300" as="sourcePoint" />
            <mxPoint x="420" y="250" as="targetPoint" />
          </mxGeometry>
        </mxCell>
        <mxCell id="NXTewplx0SHH3v9Mlc8O-72" value="" style="endArrow=none;dashed=1;html=1;dashPattern=1 3;strokeWidth=2;rounded=0;entryX=0.5;entryY=1;entryDx=0;entryDy=0;" edge="1" parent="1" target="NXTewplx0SHH3v9Mlc8O-66">
          <mxGeometry width="50" height="50" relative="1" as="geometry">
            <mxPoint x="390" y="340" as="sourcePoint" />
            <mxPoint x="420" y="250" as="targetPoint" />
          </mxGeometry>
        </mxCell>
      </root>
    </mxGraphModel>
  </diagram>
</mxfile>
